<?xml version="1.0" encoding="UTF-8" standalone="no"?>
<svg
   xmlns:dc="http://purl.org/dc/elements/1.1/"
   xmlns:cc="http://creativecommons.org/ns#"
   xmlns:rdf="http://www.w3.org/1999/02/22-rdf-syntax-ns#"
   xmlns:svg="http://www.w3.org/2000/svg"
   xmlns="http://www.w3.org/2000/svg"
   xmlns:sodipodi="http://sodipodi.sourceforge.net/DTD/sodipodi-0.dtd"
   xmlns:inkscape="http://www.inkscape.org/namespaces/inkscape"
   id="svg8"
   version="1.1"
   viewBox="0 0 67.733333 67.733333"
   height="256"
   width="256"
   sodipodi:docname="icon.svg"
   style="enable-background:new"
   inkscape:version="0.92.3 (2405546, 2018-03-11)"
   inkscape:export-filename="/home/x/projects/endless-tape/assets/icon.png"
   inkscape:export-xdpi="48"
   inkscape:export-ydpi="48">
  <sodipodi:namedview
     pagecolor="#ffffff"
     bordercolor="#666666"
     borderopacity="1"
     objecttolerance="10"
     gridtolerance="10"
     guidetolerance="10"
     inkscape:pageopacity="0"
     inkscape:pageshadow="2"
     inkscape:window-width="1366"
     inkscape:window-height="731"
     id="namedview20"
     showgrid="false"
     inkscape:pagecheckerboard="true"
     borderlayer="true"
     inkscape:showpageshadow="false"
     inkscape:zoom="1.4552083"
     inkscape:cx="159.03174"
     inkscape:cy="123.68794"
     inkscape:window-x="0"
     inkscape:window-y="18"
     inkscape:window-maximized="0"
     inkscape:current-layer="svg8"
     inkscape:snap-global="false"
     units="px" />
  <defs
     id="defs2">
    <marker
       style="overflow:visible"
       id="Arrow1Lstart"
       refX="0"
       refY="0"
       orient="auto">
      <path
         transform="matrix(0.8,0,0,0.8,10,0)"
         style="fill-rule:evenodd;stroke:#000000;stroke-width:1.00000003pt"
         d="M 0,0 5,-5 -12.5,0 5,5 Z"
         id="path5490"
         inkscape:connector-curvature="0" />
    </marker>
    <clipPath
       id="clipPath3917"
       clipPathUnits="userSpaceOnUse">
      <g
         style="fill:#ffffff"
         id="use3919">
        <ellipse
           ry="47.039436"
           rx="56.126598"
           cy="132.36734"
           cx="116.28776"
           id="ellipse3971"
           style="fill:#ffffff;stroke-width:0.26458332" />
        <ellipse
           style="fill:#ffffff;stroke-width:0.26458332"
           id="ellipse3973"
           cx="531.62457"
           cy="124.88382"
           rx="56.126602"
           ry="47.039436"
           mask="none" />
      </g>
    </clipPath>
  </defs>
  <metadata
     id="metadata5">
    <rdf:RDF>
      <cc:Work
         rdf:about="">
        <dc:format>image/svg+xml</dc:format>
        <dc:type
           rdf:resource="http://purl.org/dc/dcmitype/StillImage" />
        <dc:title></dc:title>
      </cc:Work>
    </rdf:RDF>
  </metadata>
  <circle
     style="opacity:1;fill:#333333;fill-opacity:1;stroke:none;stroke-width:0.3329936;stroke-opacity:1;paint-order:stroke markers fill"
     id="path1482"
     cx="33.866665"
     cy="33.866669"
     r="33.866665"
     inkscape:transform-center-x="-33.704859"
     inkscape:transform-center-y="-33.877919" />
  <g
     id="g1478"
     transform="matrix(0.72079336,-0.36715938,0.36715938,0.72079336,-7.1946537,13.042208)">
    <rect
       ry="2.8620269"
       y="24.206665"
       x="2.7755576e-17"
       height="43.526669"
       width="67.101074"
       id="rect1469"
       style="opacity:1;fill:#333333;fill-opacity:1;stroke:none;stroke-width:0.04276827;stroke-opacity:1;paint-order:stroke markers fill" />
    <g
       transform="matrix(0.1177212,0,0,0.1177212,-1.8111075,10.502706)"
       id="g1432">
      <g
         style="display:inline;fill:#ffffff;fill-opacity:1"
         id="layer5"
         transform="matrix(0.91666656,0,0,0.87500031,25,125)">
        <path
           id="rect6087"
           transform="scale(0.26458333)"
           d="M 56.568359,0 C 25.229393,0 0,25.229393 0,56.568359 V 1455.2422 c 0,31.339 25.229393,56.5683 56.568359,56.5683 H 2211.1484 c 31.339,0 56.5684,-25.2293 56.5684,-56.5683 V 56.568359 C 2267.7168,25.229393 2242.4874,0 2211.1484,0 Z M 642.45703,517.79492 A 141.73228,141.73228 0 0 1 784.18945,659.52734 141.73228,141.73228 0 0 1 642.45703,801.25977 141.73228,141.73228 0 0 1 500.72461,659.52734 141.73228,141.73228 0 0 1 642.45703,517.79492 Z m 960.73637,0 a 141.73228,141.73228 0 0 1 141.7324,141.73242 141.73228,141.73228 0 0 1 -141.7324,141.73243 141.73228,141.73228 0 0 1 -141.7325,-141.73243 141.73228,141.73228 0 0 1 141.7325,-141.73242 z m -690.17582,13.72852 h 425.74022 c 13.431,0 24.2422,10.81315 24.2422,24.24414 v 134.36914 c 0,13.43099 -10.8112,24.24414 -24.2422,24.24414 H 913.01758 c -13.43099,0 -24.24219,-10.81315 -24.24219,-24.24414 V 555.76758 c 0,-13.43099 10.8112,-24.24414 24.24219,-24.24414 z m 493.47072,823.55466 h 59.8965 c 6.4413,0 11.6269,5.1857 11.6269,11.627 v 59.8965 c 0,6.4412 -5.1856,11.6269 -11.6269,11.6269 h -59.8965 c -6.4413,0 -11.627,-5.1857 -11.627,-11.6269 v -59.8965 c 0,-6.4413 5.1857,-11.627 11.627,-11.627 z m -643.6426,0.9356 h 59.89649 c 6.44128,0 11.62695,5.1856 11.62695,11.6269 v 59.8965 c 0,6.4413 -5.18567,11.625 -11.62695,11.625 H 762.8457 c -6.44128,0 -11.62695,-5.1837 -11.62695,-11.625 v -59.8965 c 0,-6.4413 5.18567,-11.6269 11.62695,-11.6269 z m -197.71093,18.2578 a 62.362205,62.362205 0 0 1 62.36328,62.3613 62.362205,62.362205 0 0 1 -62.36328,62.3633 62.362205,62.362205 0 0 1 -62.36133,-62.3633 62.362205,62.362205 0 0 1 62.36133,-62.3613 z M 1660,1375.1641 a 62.362202,62.362202 0 0 1 62.3613,62.3613 62.362202,62.362202 0 0 1 -62.3613,62.3613 62.362202,62.362202 0 0 1 -62.3613,-62.3613 62.362202,62.362202 0 0 1 62.3613,-62.3613 z"
           style="opacity:1;fill:#ffffff;fill-opacity:1;stroke-width:0.93547696;paint-order:stroke markers fill"
           inkscape:connector-curvature="0" />
        <g
           id="layer1"
           transform="translate(0.51314621,102.04236)"
           style="display:inline;fill:#ffffff;fill-opacity:1">
          <path
             style="opacity:1;fill:#ffffff;fill-opacity:1;stroke-width:0.99244744;paint-order:stroke markers fill"
             d="m 191.50781,117.58398 -81.20312,79.00782 v 915.9727 H 2145.1641 V 214.92188 l -97.3379,-97.3379 z m 457.00977,359.83008 h 945.50392 c 104.0901,0 187.8867,83.79852 187.8867,187.88867 0,104.09016 -83.7966,187.88868 -187.8867,187.88868 H 648.51758 c -104.09016,0 -187.88867,-83.79852 -187.88867,-187.88868 0,-104.09015 83.79851,-187.88867 187.88867,-187.88867 z"
             transform="matrix(0.26458333,0,0,0.26458333,0,-103)"
             id="rect6234"
             inkscape:connector-curvature="0" />
        </g>
      </g>
      <path
         inkscape:connector-curvature="0"
         style="display:inline;opacity:1;fill:#333333;fill-opacity:1;stroke-width:0.24284379;paint-order:stroke markers fill"
         d="m 62.833806,149.29901 -20.429139,18.8032 V 386.09606 H 554.33611 V 172.46462 l -24.48835,-23.16561 z m 114.974864,85.63655 h 237.87057 c 26.18707,0 47.26867,19.94334 47.26867,44.71593 0,24.77259 -21.0816,44.71594 -47.26867,44.71594 H 177.80867 c -26.18708,0 -47.26917,-19.94335 -47.26917,-44.71594 0,-24.77259 21.08209,-44.71593 47.26917,-44.71593 z"
         id="rect6234-3" />
    </g>
  </g>
</svg>
